#!OML:ASF F:\VICON\USERDATA\Patient Classification 1\PLAYGROUND\JustinFriday\JustinFriday.ASF
:FULLY-SPECIFIED
:DEGREES
2052
root 19.9261 17.995 11.2419 188.064 -54.2925 -185.898
lowerback 12.4138 -0.499865 -14.0127
upperback 4.9122 -2.53182 4.92735
thorax -0.80746 -1.69816 13.796
lowerneck -5.8046 -9.72518 -11.88
upperneck 2.09971 -12.7602 12.7963
head 3.17086 -6.16496 5.06404
rclavicle -4.33351e-014 5.56597e-015
rhumerus 44.9637 -10.6754 -65.5283
rradius 55.5354
rwrist 26.7009
rhand -37.7354 -20.1219
rfingers 7.12502
rthumb -10.784 -49.8251
lclavicle -4.33351e-014 5.56597e-015
lhumerus 60.9954 -22.2129 63.1113
lradius 62.4177
lwrist -8.18711
lhand -23.9714 -17.389
lfingers 7.12502
lthumb 2.50499 12.576
rfemur -29.5829 -11.806 27.2554
rtibia 24.6904
rfoot -17.0088 -22.7312
rtoes 18.7241
lfemur -4.08759 19.7017 -22.0732
ltibia 28.718
lfoot -14.7087 9.99055
ltoes -3.72252
2053
root 19.8418 17.9789 11.2236 188.868 -53.7589 -186.809
lowerback 12.2261 -0.481028 -14.403
upperback 5.12834 -2.53447 4.79554
thorax -0.450182 -1.75572 13.8606
lowerneck -6.03586 -9.68682 -11.5965
upperneck 2.0262 -12.6764 12.47
head 3.13483 -6.12188 4.92063
rclavicle -1.14102e-013 4.21423e-014
rhumerus 44.7164 -10.496 -65.5272
rradius 56.7654
rwrist 28.0085
rhand -35.8949 -22.096
rfingers 7.12502
rthumb -9.00841 -51.8837
lclavicle -1.14102e-013 4.21423e-014
lhumerus 62.5421 -21.5665 62.4933
lradius 61.5159
lwrist -8.31315
lhand -24.543 -17.5544
lfingers 7.12502
lthumb 1.95289 12.4164
rfemur -29.4873 -10.7891 26.5792
rtibia 24.8399
rfoot -16.9279 -23.1567
rtoes 21.2007
lfemur -3.87141 19.8585 -22.7525
ltibia 28.7544
lfoot -14.7458 10.0189
ltoes -3.98245
2054
root 19.7728 17.9663 11.2032 188.207 -53.317 -185.465
lowerback 11.8462 -0.600377 -13.5727
upperback 5.23958 -2.55677 5.08518
thorax -0.15083 -1.79685 13.6711
lowerneck -6.29378 -9.59671 -11.4174
upperneck 1.98726 -12.5122 12.0989
head 3.10779 -6.03964 4.78514
rclavicle -2.94201e-014 -9.54166e-015
rhumerus 44.6813 -10.2001 -65.5105
rradius 57.5159
rwrist 28.9252
rhand -38.1395 -20.6474
rfingers 7.12502
rthumb -11.1738 -50.3298
lclavicle -2.94201e-014 -9.54166e-015
lhumerus 63.7822 -20.7738 62.2115
lradius 60.577
lwrist -8.52543
lhand -25.1776 -17.7539
lfingers 7.12502
lthumb 1.34007 12.2216
rfemur -29.3975 -8.36961 27.0983
rtibia 24.5022
rfoot -17.3829 -24.1689
rtoes 24.0633
lfemur -4.3921 19.9663 -22.0214
ltibia 29.302
lfoot -14.776 10.1578
ltoes -4.8114
2055
root 19.6794 17.9447 11.2079 188.703 -52.3197 -186.177
lowerback 11.8194 -0.583639 -13.6327
upperback 5.49053 -2.55547 4.97038
thorax 0.133022 -1.84589 13.563
lowerneck -6.658 -9.50779 -11.8877
upperneck 2.09169 -12.3214 12.1244
head 3.20629 -5.9348 4.8628
rclavicle -4.37326e-015 -3.18055e-014
rhumerus 45.1221 -9.7593 -66.1114
rradius 59.634
rwrist 27.6984
rhand -37.4085 -21.1721
rfingers 7.12502
rthumb -10.4687 -50.8914
lclavicle -4.37326e-015 -3.18055e-014
lhumerus 64.7716 -19.7719 62.1461
lradius 59.6157
lwrist -8.71395
lhand -26.0822 -18.1305
lfingers 7.12502
lthumb 0.466345 11.8488
rfemur -29.1036 -8.8589 26.785
rtibia 24.1154
rfoot -16.0598 -22.244
rtoes 25.1583
lfemur -4.35137 20.3719 -22.8036
ltibia 29.9589
lfoot -15.0836 10.698
ltoes -6.14376
2056
root 19.5628 18.0035 11.2436 193.184 -53.4347 -186.287
lowerback 7.17415 -2.20816 -11.798
upperback 4.55412 -3.90888 5.05572
thorax 1.98803 -2.5084 12.3665
lowerneck -7.02054 -9.41619 -12.254
upperneck 2.26624 -12.1273 12.0091
head 3.30795 -5.83062 4.88201
rclavicle 4.69132e-014 7.15625e-015
rhumerus 45.2028 -9.43454 -66.5801
rradius 61.1146
rwrist 26.8063
rhand -35.8869 -21.5341
rfingers 7.12502
rthumb -9.00062 -51.3221
lclavicle 4.69132e-014 7.15625e-015
lhumerus 65.6698 -18.7211 61.994
lradius 58.6938
lwrist -8.63026
lhand -26.8876 -18.4506
lfingers 7.12502
lthumb -0.311555 11.5289
rfemur -33.7265 -9.71775 27.7159
rtibia 23.6201
rfoot -14.9339 -21.3531
rtoes 27.4383
lfemur -9.8916 18.9132 -24.6341
ltibia 30.7854
lfoot -14.4178 10.9962
ltoes -7.50712
2057
root 19.4725 18.0058 11.2194 193.009 -52.95 -186.178
lowerback 7.0631 -2.14182 -11.5322
upperback 4.82923 -3.80881 5.0516
thorax 2.29223 -2.49619 12.1841
lowerneck -7.19013 -9.44603 -11.9898
upperneck 2.25714 -12.1549 11.7546
head 3.30221 -5.84356 4.75458
rclavicle 4.05521e-014 -5.1684e-014
rhumerus 45.0974 -9.68085 -67.1358
rradius 62.989
rwrist 26.2257
rhand -35.1342 -21.037
rfingers 7.12502
rthumb -8.27429 -50.855
lclavicle 4.05521e-014 -5.1684e-014
lhumerus 66.7834 -18.1658 61.791
lradius 57.8313
lwrist -8.28541
lhand -27.1616 -18.552
lfingers 7.12502
lthumb -0.576129 11.427
rfemur -33.2716 -8.91311 27.477
rtibia 23.4553
rfoot -14.7927 -20.8567
rtoes 30.544
lfemur -9.7684 19.2852 -24.6017
ltibia 31.4003
lfoot -14.3599 10.9517
ltoes -8.38943
2058
root 19.3838 18.0122 11.1912 192.863 -52.6248 -186.107
lowerback 6.98661 -2.13065 -11.3121
upperback 5.12729 -3.79502 5.08091
thorax 2.63494 -2.5349 12.0709
lowerneck -7.45734 -9.4798 -11.8047
upperneck 2.19446 -12.1775 11.6303
head 3.30944 -5.84975 4.67604
rclavicle 1.27222e-014 3.26007e-014
rhumerus 45.2425 -9.82872 -67.6273
rradius 64.9788
rwrist 25.8687
rhand -34.5431 -20.5752
rfingers 7.12502
rthumb -7.70381 -50.4148
lclavicle 1.27222e-014 3.26007e-014
lhumerus 67.9029 -17.5705 61.6332
lradius 57.0215
lwrist -8.01157
lhand -27.3104 -18.0154
lfingers 7.12502
lthumb -0.719869 11.9631
rfemur -32.8361 -7.90549 27.0215
rtibia 23.2696
rfoot -14.0972 -20.9645
rtoes 32.1554
lfemur -9.7029 19.4264 -24.5229
ltibia 32.1357
lfoot -14.4122 10.8897
ltoes -8.69553
2059
root 19.2936 18.0122 11.1676 192.664 -52.2842 -185.966
lowerback 6.98456 -2.25848 -10.9972
upperback 5.39307 -3.978 5.17068
thorax 2.9557 -2.66909 11.9778
lowerneck -7.87573 -9.40981 -12.0649
upperneck 2.37797 -12.0263 11.6472
head 3.4312 -5.76221 4.71323
rclavicle -4.49253e-014 3.49861e-014
rhumerus 45.6117 -9.42681 -67.8091
rradius 65.5709
rwrist 25.7447
rhand -34.4841 -19.606
rfingers 7.12502
rthumb -7.64689 -49.4478
lclavicle -4.49253e-014 3.49861e-014
lhumerus 68.698 -16.6321 61.658
lradius 56.0856
lwrist -7.98579
lhand -27.7888 -17.9104
lfingers 7.12502
lthumb -1.18193 12.066
rfemur -32.6742 -7.45843 26.8215
rtibia 23.4886
rfoot -12.8618 -21.0718
rtoes 32.6003
lfemur -9.64363 19.4077 -24.4389
ltibia 32.8023
lfoot -14.4159 10.9956
ltoes -8.26939
2060
root 19.2041 18.013 11.1454 192.096 -51.8062 -185.499
lowerback 7.13967 -2.2781 -10.4913
upperback 5.63394 -4.02429 5.25924
thorax 3.10264 -2.71307 11.7783
lowerneck -8.02542 -9.27823 -12.1469
upperneck 2.46932 -11.8288 11.6289
head 3.46331 -5.66032 4.73108
rclavicle -5.68524e-014 7.95139e-015
rhumerus 45.7185 -9.11748 -68.0379
rradius 66.6222
rwrist 26.3401
rhand -33.7232 -18.9597
rfingers 7.12502
rthumb -6.91235 -48.8269
lclavicle -5.68524e-014 7.95139e-015
lhumerus 69.3823 -15.9003 61.9782
lradius 54.9538
lwrist -8.06872
lhand -28.593 -18.7797
lfingers 7.12502
lthumb -1.95868 11.1911
rfemur -32.4065 -7.51283 27.0411
rtibia 23.7984
rfoot -11.8786 -20.8775
rtoes 33.1809
lfemur -9.54728 19.5484 -24.1449
ltibia 33.6297
lfoot -14.4494 11.0747
ltoes -7.44498
